<?xml version="1.0" standalone="no"?>
<!DOCTYPE svg PUBLIC "-//W3C//DTD SVG 20010904//EN"
 "http://www.w3.org/TR/2001/REC-SVG-20010904/DTD/svg10.dtd">
<svg version="1.0" xmlns="http://www.w3.org/2000/svg"
 width="16.000000pt" height="16.000000pt" viewBox="0 0 16.000000 16.000000"
 preserveAspectRatio="xMidYMid meet">
<metadata>
Created by potrace 1.11, written by Peter Selinger 2001-2013
</metadata>
<g transform="translate(0.000000,16.000000) scale(0.003125,-0.003125)"
fill="#000000" stroke="none">
<path d="M0 2560 l0 -2560 2560 0 2560 0 0 2560 0 2560 -2560 0 -2560 0 0
-2560z m3150 1955 c191 -32 485 -119 476 -139 -2 -6 -50 -128 -106 -271 -56
-143 -105 -263 -109 -267 -3 -3 -46 7 -94 23 -152 50 -268 69 -447 76 -183 6
-289 -4 -440 -42 -415 -106 -741 -386 -906 -776 -19 -44 -34 -82 -34 -85 0 -2
288 -4 640 -4 l640 0 0 -220 0 -220 -680 0 -680 0 0 -70 0 -70 678 -2 677 -3
3 -217 2 -218 -644 0 -645 0 18 -52 c105 -305 333 -557 625 -693 144 -68 318
-114 485 -131 l73 -7 -257 -257 -258 -258 -51 15 c-176 51 -420 176 -584 299
-107 80 -284 262 -364 374 -125 175 -240 433 -298 668 l-11 42 -159 0 -160 0
0 220 0 220 135 0 135 0 0 70 0 70 -135 0 -135 0 0 220 0 220 163 0 162 0 32
113 c206 737 837 1269 1638 1382 132 19 482 13 615 -10z"/>
</g>
</svg>
